<?xml version="1.0" standalone="no"?>
<!DOCTYPE svg PUBLIC "-//W3C//DTD SVG 20010904//EN"
 "http://www.w3.org/TR/2001/REC-SVG-20010904/DTD/svg10.dtd">
<svg version="1.0" xmlns="http://www.w3.org/2000/svg"
 width="647.000000pt" height="182.000000pt" viewBox="0 0 647.000000 182.000000"
 preserveAspectRatio="xMidYMid meet">

<g transform="translate(0.000000,182.000000) scale(0.100000,-0.100000)"
fill="#000000" stroke="none">
<path d="M2739 1363 c-13 -16 -12 -17 4 -4 16 13 21 21 13 21 -2 0 -10 -8 -17
-17z"/>
<path d="M2470 1357 c0 -2 22 -18 50 -36 27 -18 57 -42 65 -54 8 -12 15 -16
15 -10 0 7 -5 15 -10 18 -6 4 -8 10 -5 15 3 5 -11 20 -32 34 -36 23 -83 42
-83 33z"/>
<path d="M3810 1322 c6 -13 14 -21 18 -18 3 4 -2 14 -12 24 -18 16 -18 16 -6
-6z"/>
<path d="M2800 1310 c0 -5 1 -11 2 -12 1 -2 -13 -19 -30 -38 -35 -37 -28 -49
17 -31 19 8 27 19 27 36 0 14 -3 25 -8 25 -4 0 -5 7 -2 15 4 8 3 15 0 15 -3 0
-6 -4 -6 -10z"/>
<path d="M3744 1273 c4 -7 3 -20 -2 -30 -14 -25 6 -63 33 -63 l22 0 -23 47
c-13 25 -27 49 -31 52 -3 3 -3 0 1 -6z"/>
<path d="M4025 1265 c-22 -8 -41 -15 -42 -15 -1 0 -12 -15 -24 -32 -19 -28
-20 -30 -3 -16 10 9 43 28 72 43 73 36 71 47 -3 20z"/>
<path d="M2459 1247 c6 -8 9 -16 6 -19 -3 -2 2 -5 10 -5 13 0 13 3 -2 19 -19
21 -31 25 -14 5z"/>
<path d="M2450 1197 c0 -9 4 -18 9 -21 5 -4 8 1 7 9 -3 21 -16 31 -16 12z"/>
<path d="M2489 1203 c-1 -7 -2 -19 -3 -25 -3 -17 13 -38 28 -38 6 0 5 4 -3 9
-8 5 -11 15 -8 23 3 8 1 21 -4 29 -6 10 -9 11 -10 2z"/>
<path d="M2135 1170 c-10 -11 -16 -22 -14 -24 2 -2 12 7 22 20 22 29 17 32 -8
4z"/>
<path d="M4049 1143 c-13 -15 -17 -22 -8 -15 9 6 19 10 22 7 4 -3 5 -2 2 2 -3
3 0 12 6 20 21 25 3 13 -22 -14z"/>
<path d="M1993 1133 c-16 -6 -17 -45 -1 -61 18 -18 59 -16 52 3 -4 8 -11 12
-16 9 -6 -4 -7 2 -3 16 5 14 3 20 -3 16 -6 -3 -12 0 -14 7 -2 8 -9 12 -15 10z"/>
<path d="M4483 1122 c10 -10 17 -23 17 -29 0 -5 7 -10 15 -10 15 0 10 11 -22
44 -19 20 -28 15 -10 -5z"/>
<path d="M4102 1110 c0 -14 2 -19 5 -12 2 6 2 18 0 25 -3 6 -5 1 -5 -13z"/>
<path d="M4058 1113 c7 -3 16 -2 19 1 4 3 -2 6 -13 5 -11 0 -14 -3 -6 -6z"/>
<path d="M5936 1101 c-9 -14 4 -41 19 -41 8 0 16 4 19 9 3 5 -2 8 -12 7 -11
-1 -16 5 -14 17 3 18 -3 23 -12 8z"/>
<path d="M4630 1075 c0 -9 -4 -14 -8 -11 -4 3 -13 -8 -19 -25 -13 -33 -3 -45
27 -29 21 11 28 64 10 75 -5 3 -10 -1 -10 -10z"/>
<path d="M627 1030 c3 -11 9 -20 15 -20 5 0 4 9 -2 20 -6 11 -12 20 -14 20 -2
0 -2 -9 1 -20z"/>
<path d="M3897 1033 c-12 -12 -7 -22 8 -17 8 4 15 10 15 15 0 11 -14 12 -23 2z"/>
<path d="M5721 1001 c6 -14 15 -36 19 -50 6 -26 6 -26 12 -3 5 16 -1 31 -18
50 -24 26 -25 26 -13 3z"/>
<path d="M805 1000 c3 -5 8 -10 11 -10 2 0 4 5 4 10 0 6 -5 10 -11 10 -5 0 -7
-4 -4 -10z"/>
<path d="M2220 995 c-34 -41 24 -195 74 -195 5 0 1 6 -10 14 -18 14 -18 16 19
54 35 36 37 41 27 68 -24 64 -81 94 -110 59z"/>
<path d="M4077 976 c-4 -10 -7 -25 -6 -34 0 -11 4 -9 10 7 5 13 8 29 6 35 -2
5 -6 2 -10 -8z"/>
<path d="M6018 983 c6 -2 18 -2 25 0 6 3 1 5 -13 5 -14 0 -19 -2 -12 -5z"/>
<path d="M5875 970 c11 -5 29 -9 40 -9 17 -1 17 1 5 9 -8 5 -26 9 -40 9 -23 0
-23 -1 -5 -9z"/>
<path d="M852 958 c-15 -15 -16 -54 -2 -63 5 -3 7 0 4 9 -3 8 0 24 6 36 13 25
9 35 -8 18z"/>
<path d="M3286 961 c-4 -5 -4 -16 -1 -24 6 -15 51 -12 61 4 3 5 -2 6 -10 3 -9
-4 -18 1 -22 10 -7 18 -20 21 -28 7z"/>
<path d="M4096 936 c-3 -13 -3 -56 0 -97 6 -77 11 -86 67 -115 27 -14 28 -14
19 3 -6 10 -24 31 -41 47 -17 17 -31 33 -31 38 0 21 20 2 70 -63 52 -69 75
-89 102 -89 7 0 -3 11 -23 25 -20 14 -46 44 -58 65 -12 22 -26 40 -32 40 -5 0
-23 19 -40 43 -27 37 -30 47 -24 85 7 45 1 57 -9 18z"/>
<path d="M4177 944 c-4 -4 -7 -14 -7 -23 0 -11 3 -12 11 -4 6 6 10 16 7 23 -2
6 -7 8 -11 4z"/>
<path d="M4344 929 c-24 -12 -54 -59 -54 -85 0 -10 15 -33 33 -52 31 -32 31
-34 13 -48 -17 -12 -17 -14 -3 -14 9 0 24 12 34 28 10 15 20 29 24 32 3 3 11
25 18 50 21 78 -7 117 -65 89z"/>
<path d="M550 910 c-9 -6 -10 -10 -3 -10 6 0 15 5 18 10 8 12 4 12 -15 0z"/>
<path d="M675 910 c-8 -13 15 -13 35 0 12 8 11 10 -7 10 -12 0 -25 -4 -28 -10z"/>
<path d="M4181 854 c0 -11 3 -14 6 -6 3 7 2 16 -1 19 -3 4 -6 -2 -5 -13z"/>
<path d="M1798 853 c7 -3 16 -2 19 1 4 3 -2 6 -13 5 -11 0 -14 -3 -6 -6z"/>
<path d="M1845 849 c-5 -7 5 -8 32 -3 51 9 54 14 10 14 -20 0 -39 -5 -42 -11z"/>
<path d="M5520 852 c0 -33 21 -52 58 -52 20 0 44 5 52 10 11 8 5 10 -25 8 -32
-2 -44 2 -62 22 -13 14 -23 19 -23 12z"/>
<path d="M1060 817 c-7 -15 -21 -27 -29 -26 -9 1 -27 1 -41 0 -20 -1 -22 -3
-9 -11 9 -5 34 -8 55 -6 40 4 50 17 41 54 -3 13 -6 11 -17 -11z"/>
<path d="M1760 830 c8 -5 20 -10 25 -10 6 0 3 5 -5 10 -8 5 -19 10 -25 10 -5
0 -3 -5 5 -10z"/>
<path d="M4145 830 c3 -5 8 -10 11 -10 2 0 4 5 4 10 0 6 -5 10 -11 10 -5 0 -7
-4 -4 -10z"/>
<path d="M2365 819 c-4 -6 -17 -14 -29 -19 -14 -6 -16 -9 -5 -9 9 -1 24 8 34
19 10 11 15 20 12 20 -3 0 -9 -5 -12 -11z"/>
<path d="M4180 820 c0 -18 19 -40 35 -40 7 0 6 3 -1 8 -6 4 -16 16 -22 27 -8
15 -11 16 -12 5z"/>
<path d="M1810 810 c8 -5 20 -10 25 -10 6 0 3 5 -5 10 -8 5 -19 10 -25 10 -5
0 -3 -5 5 -10z"/>
<path d="M2208 795 c-7 -36 40 -83 57 -56 3 5 0 13 -6 16 -6 4 -19 20 -29 37
l-17 29 -5 -26z"/>
<path d="M4693 807 c2 -6 30 -11 63 -13 32 -1 48 1 34 3 -14 2 -42 8 -63 13
-26 6 -37 5 -34 -3z"/>
<path d="M2362 758 c-35 -22 -39 -28 -19 -28 16 1 63 37 57 44 -3 3 -20 -4
-38 -16z"/>
<path d="M4825 765 c-25 -12 -26 -14 -5 -9 28 7 60 23 45 23 -5 0 -23 -6 -40
-14z"/>
<path d="M4249 748 c14 -16 32 -28 40 -27 14 0 14 1 1 6 -8 3 -26 15 -40 27
l-25 21 24 -27z"/>
<path d="M1472 748 c-14 -14 -16 -57 -3 -76 10 -17 73 -12 79 6 3 11 0 12 -16
3 -31 -17 -50 -13 -57 10 -8 25 10 42 37 35 26 -6 32 11 9 23 -25 14 -34 14
-49 -1z"/>
<path d="M5127 749 c-9 -6 -15 -15 -12 -20 4 -5 11 -7 16 -4 19 13 50 -6 47
-28 -4 -27 -40 -34 -62 -12 -9 9 -16 12 -16 7 0 -18 29 -33 57 -30 24 2 28 8
31 36 5 52 -21 74 -61 51z"/>
<path d="M1586 727 c3 -10 9 -15 12 -12 3 3 0 11 -7 18 -10 9 -11 8 -5 -6z"/>
<path d="M1636 727 c3 -10 9 -15 12 -12 3 3 0 11 -7 18 -10 9 -11 8 -5 -6z"/>
<path d="M4100 733 c0 -6 12 -21 28 -32 15 -11 22 -21 15 -21 -6 0 -15 5 -18
10 -3 6 -13 10 -21 10 -25 0 -12 -51 19 -74 28 -21 127 -32 127 -14 0 4 -5 8
-10 8 -18 0 -91 50 -86 59 3 4 -8 21 -24 36 -17 16 -30 24 -30 18z"/>
<path d="M4377 704 c-32 -40 -29 -53 8 -36 19 9 25 19 25 42 0 16 -1 30 -2 30
-2 0 -16 -16 -31 -36z"/>
<path d="M5053 725 c-3 -9 -3 -18 -1 -21 3 -3 8 4 11 16 6 23 -1 27 -10 5z"/>
<path d="M2060 706 c0 -2 8 -10 18 -17 15 -13 16 -12 3 4 -13 16 -21 21 -21
13z"/>
<path d="M2375 685 l-30 -13 42 -1 c34 -1 41 2 37 14 -7 18 -10 18 -49 0z"/>
<path d="M1436 673 c-11 -11 -6 -23 9 -23 8 0 15 4 15 9 0 13 -16 22 -24 14z"/>
<path d="M5196 673 c-11 -11 -6 -23 9 -23 8 0 15 4 15 9 0 13 -16 22 -24 14z"/>
<path d="M2118 653 c7 -3 16 -2 19 1 4 3 -2 6 -13 5 -11 0 -14 -3 -6 -6z"/>
<path d="M1444 605 c11 -8 31 -14 45 -14 l26 2 -25 4 c-14 3 -29 9 -34 14 -6
5 -15 9 -20 9 -6 0 -2 -7 8 -15z"/>
<path d="M5207 614 c-3 -4 -21 -10 -39 -14 l-33 -8 30 -1 c31 -1 64 14 54 23
-3 4 -8 3 -12 0z"/>
<path d="M5246 605 c-9 -26 -7 -32 5 -12 6 10 9 21 6 23 -2 3 -7 -2 -11 -11z"/>
<path d="M1400 595 c0 -5 5 -17 10 -25 5 -8 10 -10 10 -5 0 6 -5 17 -10 25 -5
8 -10 11 -10 5z"/>
<path d="M2276 583 c-11 -3 -37 -16 -58 -30 -21 -14 -52 -28 -70 -32 l-31 -6
24 -16 c23 -15 27 -13 98 38 40 29 69 52 65 52 -5 -1 -18 -4 -28 -6z"/>
<path d="M2405 505 c-57 -57 -91 -85 -107 -85 -13 0 -32 -7 -42 -15 -11 -8
-28 -15 -39 -15 -10 0 -15 -5 -12 -11 5 -7 31 -9 74 -5 36 3 69 5 72 6 4 0 9
14 13 31 8 43 52 100 109 143 30 22 43 36 32 36 -9 0 -54 -38 -100 -85z"/>
<path d="M4059 552 c112 -88 158 -145 174 -213 6 -22 14 -26 69 -36 69 -11
130 -2 71 11 -17 4 -37 14 -44 22 -6 8 -22 14 -35 14 -17 0 -39 19 -79 69 -61
76 -155 161 -177 160 -7 0 2 -12 21 -27z"/>
<path d="M4378 573 c6 -2 18 -2 25 0 6 3 1 5 -13 5 -14 0 -19 -2 -12 -5z"/>
<path d="M4478 573 c6 -2 18 -2 25 0 6 3 1 5 -13 5 -14 0 -19 -2 -12 -5z"/>
<path d="M2522 523 c-24 -24 -24 -25 -2 -8 42 33 44 35 37 35 -4 0 -19 -12
-35 -27z"/>
<path d="M1422 520 c0 -14 2 -19 5 -12 2 6 2 18 0 25 -3 6 -5 1 -5 -13z"/>
<path d="M5221 514 c0 -11 3 -14 6 -6 3 7 2 16 -1 19 -3 4 -6 -2 -5 -13z"/>
<path d="M4011 517 c2 -2 27 -23 54 -47 l50 -44 -45 47 c-24 26 -48 47 -54 47
-5 0 -7 -1 -5 -3z"/>
<path d="M4305 512 c30 -28 126 -102 133 -102 4 0 17 7 28 16 16 13 16 15 2
10 -10 -3 -38 9 -68 30 -48 33 -116 66 -95 46z"/>
<path d="M1179 490 l-24 -19 32 -1 c36 0 49 12 29 29 -10 9 -19 7 -37 -9z"/>
<path d="M5442 498 c3 -7 18 -14 34 -16 28 -2 28 -2 10 13 -24 18 -49 20 -44
3z"/>
<path d="M1420 451 c0 -10 39 -36 45 -29 2 2 -8 11 -21 21 -13 10 -24 13 -24
8z"/>
<path d="M5204 439 c-19 -22 -19 -22 3 -10 24 12 39 31 25 31 -5 0 -17 -10
-28 -21z"/>
<path d="M2005 439 c8 -12 56 -32 62 -25 5 4 -50 36 -62 36 -3 0 -3 -5 0 -11z"/>
<path d="M1687 370 c7 -40 9 -45 16 -33 3 4 -1 22 -8 38 l-14 30 6 -35z"/>
<path d="M2742 359 c-39 -21 -95 -41 -122 -45 -28 -4 -52 -10 -55 -14 -8 -13
100 2 144 21 37 16 42 16 37 3 -4 -11 3 -9 26 8 l33 23 -30 -39 -29 -38 38 26
c38 25 65 54 66 68 0 4 -8 11 -17 16 -13 6 -38 -2 -91 -29z"/>
<path d="M4632 393 c-18 -4 -22 -9 -16 -26 3 -12 13 -29 21 -37 9 -8 13 -10
10 -5 -3 6 -2 17 4 25 7 13 9 13 9 -1 0 -8 12 -26 26 -40 l27 -24 -13 24 c-10
19 -10 22 2 15 7 -5 15 -9 18 -9 3 -1 19 -8 35 -17 58 -30 80 -29 25 1 -30 17
-70 47 -88 66 -18 19 -33 34 -35 34 -1 -1 -12 -4 -25 -6z"/>
<path d="M2128 383 c6 -2 18 -2 25 0 6 3 1 5 -13 5 -14 0 -19 -2 -12 -5z"/>
<path d="M4947 355 c-4 -8 -2 -17 3 -20 6 -4 10 3 10 14 0 25 -6 27 -13 6z"/>
<path d="M1496 352 c12 -11 64 -33 64 -27 0 5 -56 35 -67 35 -4 0 -3 -4 3 -8z"/>
<path d="M2859 358 c-1 -2 -3 -13 -4 -26 -2 -17 1 -20 11 -11 7 6 10 17 7 25
-5 13 -11 18 -14 12z"/>
<path d="M4540 340 l-35 -20 30 6 c17 4 37 13 45 20 20 20 1 17 -40 -6z"/>
<path d="M5120 344 l-25 -15 25 7 c14 3 29 10 35 15 15 14 -7 10 -35 -7z"/>
<path d="M1890 309 c-49 -31 -48 -39 3 -12 18 9 35 17 40 18 7 0 11 14 5 20
-1 1 -23 -10 -48 -26z"/>
<path d="M3190 331 c0 -6 4 -13 10 -16 6 -3 7 1 4 9 -7 18 -14 21 -14 7z"/>
<path d="M3682 334 c-6 -3 -9 -11 -5 -17 4 -6 0 -8 -11 -4 -13 5 -15 3 -7 -12
13 -24 88 -91 103 -91 6 0 -5 12 -25 28 -20 15 -36 33 -37 41 0 11 3 11 17 0
15 -12 16 -12 9 5 -6 18 -6 19 11 4 10 -9 43 -28 73 -42 l55 -27 -35 31 c-21
19 -26 27 -13 21 28 -14 46 -14 37 0 -4 8 1 9 17 4 32 -10 149 -9 159 1 5 5
-26 9 -73 10 -58 1 -100 8 -142 23 -65 25 -113 33 -133 25z"/>
<path d="M4448 303 c7 -3 16 -2 19 1 4 3 -2 6 -13 5 -11 0 -14 -3 -6 -6z"/>
<path d="M5379 285 c14 -27 31 -46 61 -70 14 -11 8 0 -14 25 -53 61 -60 68
-47 45z"/>
<path d="M1280 282 c0 -6 -21 -32 -47 -59 -39 -38 -41 -43 -13 -22 41 31 76
76 67 86 -4 3 -7 1 -7 -5z"/>
<path d="M2530 262 c0 -12 30 -20 105 -26 53 -5 56 -4 25 5 -19 6 -51 11 -70
13 -19 1 -41 5 -47 9 -7 5 -13 4 -13 -1z"/>
<path d="M3735 260 c3 -5 11 -10 16 -10 6 0 7 5 4 10 -3 6 -11 10 -16 10 -6 0
-7 -4 -4 -10z"/>
<path d="M1853 243 c9 -2 23 -2 30 0 6 3 -1 5 -18 5 -16 0 -22 -2 -12 -5z"/>
<path d="M4050 240 c0 -5 -13 -10 -30 -10 -16 0 -30 -5 -30 -11 0 -5 -4 -7
-10 -4 -5 3 -10 2 -10 -4 0 -5 -8 -12 -17 -14 -11 -3 -10 -3 2 -1 25 3 83 25
110 41 18 11 18 12 3 13 -10 0 -18 -4 -18 -10z"/>
<path d="M4761 246 c2 -2 22 -6 44 -9 27 -4 35 -3 25 3 -14 9 -79 15 -69 6z"/>
<path d="M3805 190 c-3 -6 1 -7 9 -4 18 7 21 14 7 14 -6 0 -13 -4 -16 -10z"/>
<path d="M5410 196 c0 -2 7 -7 16 -10 8 -3 12 -2 9 4 -6 10 -25 14 -25 6z"/>
<path d="M1210 165 c-14 -8 -20 -14 -15 -14 6 0 21 6 35 14 14 8 21 14 15 14
-5 0 -21 -6 -35 -14z"/>
</g>
</svg>
